<?xml version="1.0" standalone="no"?><!DOCTYPE svg PUBLIC "-//W3C//DTD SVG 1.1//EN" "http://www.w3.org/Graphics/SVG/1.1/DTD/svg11.dtd"><svg t="1584518803201" class="icon" viewBox="0 0 1024 1024" version="1.1" xmlns="http://www.w3.org/2000/svg" p-id="2097" xmlns:xlink="http://www.w3.org/1999/xlink" width="200" height="200"><defs><style type="text/css"></style></defs><path d="M922.915 512c0-226.943-183.97-410.916-410.915-410.916-226.94 0-410.916 183.973-410.916 410.916 0 226.945 183.976 410.915 410.916 410.915C738.945 922.91 922.915 738.939 922.915 512z m-887.572 0C35.343 248.748 248.749 35.342 512 35.342c263.252 0 476.657 213.405 476.657 476.658 0 263.252-213.405 476.657-476.657 476.657-263.251 0-476.657-213.405-476.657-476.657z" fill="#050002" p-id="2098"></path><path d="M627.429 664.43L474.985 511.987l152.419-152.419c6.982-6.982 10.827-16.266 10.827-26.141 0-9.874-3.845-19.157-10.828-26.14-6.982-6.981-16.265-10.827-26.139-10.827-9.875 0-19.158 3.846-26.141 10.828L396.571 485.842c-12.373 12.373-14.354 31.935-4.72 46.499a37.214 37.214 0 0 0 4.745 5.817l178.552 178.553c6.982 6.981 16.266 10.827 26.14 10.827 9.875 0 19.158-3.846 26.141-10.827 14.414-14.414 14.414-37.867 0-52.281z" fill="#000002" p-id="2099"></path></svg>