<?xml version="1.0" standalone="no"?><!DOCTYPE svg PUBLIC "-//W3C//DTD SVG 1.1//EN" "http://www.w3.org/Graphics/SVG/1.1/DTD/svg11.dtd"><svg t="1582700664270" class="icon" viewBox="0 0 1024 1024" version="1.1" xmlns="http://www.w3.org/2000/svg" p-id="15902" xmlns:xlink="http://www.w3.org/1999/xlink" width="200" height="200"><defs><style type="text/css"></style></defs><path d="M101.76 91.306667m105.386667 0l178.56 0q105.386667 0 105.386666 105.386666l0 178.56q0 105.386667-105.386666 105.386667l-178.56 0q-105.386667 0-105.386667-105.386667l0-178.56q0-105.386667 105.386667-105.386666Z" fill="#5889FF" p-id="15903"></path><path d="M554.666667 91.306667m105.386666 0l178.56 0q105.386667 0 105.386667 105.386666l0 178.56q0 105.386667-105.386667 105.386667l-178.56 0q-105.386667 0-105.386666-105.386667l0-178.56q0-105.386667 105.386666-105.386666Z" fill="#5889FF" p-id="15904"></path><path d="M101.76 543.36m105.386667 0l178.56 0q105.386667 0 105.386666 105.386667l0 178.56q0 105.386667-105.386666 105.386666l-178.56 0q-105.386667 0-105.386667-105.386666l0-178.56q0-105.386667 105.386667-105.386667Z" fill="#5889FF" p-id="15905"></path><path d="M554.666667 543.36m105.386666 0l178.56 0q105.386667 0 105.386667 105.386667l0 178.56q0 105.386667-105.386667 105.386666l-178.56 0q-105.386667 0-105.386666-105.386666l0-178.56q0-105.386667 105.386666-105.386667Z" fill="#5889FF" p-id="15906"></path></svg>